{"accessors":[{"name":"Switch_Switch_osgPicked_gmeGeoEntityGeode_Geometry_0-Mesh_0_positions","componentType":5126,"count":72606,"min":[483826.3125,3024794.5,-3074.993408203125],"max":[500012,3050855,990.4523315429688],"type":"VEC3","bufferView":0,"byteOffset":0},{"name":"Switch_Switch_osgPicked_gmeGeoEntityGeode_Geometry_0-Mesh_0_normals","componentType":5126,"count":72606,"min":[-1,-0.999483585357666,-1],"max":[0.9999907612800598,0.9998307228088379,1],"type":"VEC3","bufferView":1,"byteOffset":0},{"name":"Switch_Switch_osgPicked_gmeGeoEntityGeode_Geometry_0-Mesh_0_indices","componentType":5125,"count":72606,"min":[0],"max":[72605],"type":"SCALAR","bufferView":2,"byteOffset":0},{"name":"Switch_Switch_osgPicked_gmeGeoEntityGeode_Geometry_Geometry_0-Mesh_0_positions","componentType":5126,"count":6,"min":[484546.6875,3025611.5,211.04141235351562],"max":[484661.40625,3025720.5,211.279296875],"type":"VEC3","bufferView":0,"byteOffset":871272},{"name":"Switch_Switch_osgPicked_gmeGeoEntityGeode_Geometry_Geometry_0-Mesh_0_normals","componentType":5126,"count":6,"min":[0,0,1],"max":[0,0,1],"type":"VEC3","bufferView":1,"byteOffset":871272},{"name":"Switch_Switch_osgPicked_gmeGeoEntityGeode_Geometry_Geometry_0-Mesh_0_indices","componentType":5125,"count":6,"min":[0],"max":[5],"type":"SCALAR","bufferView":2,"byteOffset":290424},{"name":"Switch_Switch_osgPicked_gmeGeoEntityGeode_Geometry_Geometry_Geometry_0-Mesh_0_positions","componentType":5126,"count":6,"min":[484554.1875,3025756.25,194.359375],"max":[484728.1875,3025767.25,194.6203155517578],"type":"VEC3","bufferView":0,"byteOffset":871344},{"name":"Switch_Switch_osgPicked_gmeGeoEntityGeode_Geometry_Geometry_Geometry_0-Mesh_0_normals","componentType":5126,"count":6,"min":[0,0,1],"max":[0,0,1],"type":"VEC3","bufferView":1,"byteOffset":871344},{"name":"Switch_Switch_osgPicked_gmeGeoEntityGeode_Geometry_Geometry_Geometry_0-Mesh_0_indices","componentType":5125,"count":6,"min":[0],"max":[5],"type":"SCALAR","bufferView":2,"byteOffset":290448},{"name":"Switch_Switch_osgPicked_gmeGeoEntityGeode_Geometry_Geometry_Geometry_Geometry_0-Mesh_0_positions","componentType":5126,"count":6,"min":[484661.59375,3025583.5,228.63671875],"max":[484677.8125,3025595.25,228.7265625],"type":"VEC3","bufferView":0,"byteOffset":871416},{"name":"Switch_Switch_osgPicked_gmeGeoEntityGeode_Geometry_Geometry_Geometry_Geometry_0-Mesh_0_normals","componentType":5126,"count":6,"min":[0,0,1],"max":[0,0,1],"type":"VEC3","bufferView":1,"byteOffset":871416},{"name":"Switch_Switch_osgPicked_gmeGeoEntityGeode_Geometry_Geometry_Geometry_Geometry_0-Mesh_0_indices","componentType":5125,"count":6,"min":[0],"max":[5],"type":"SCALAR","bufferView":2,"byteOffset":290472},{"name":"Switch_Switch_osgPicked_gmeGeoEntityGeode_Geometry_Geometry_Geometry_Geometry_Geometry_0-Mesh_0_positions","componentType":5126,"count":12,"min":[484661.40625,3025586.5,244.47589111328125],"max":[484664.40625,3025611.5,244.4816131591797],"type":"VEC3","bufferView":0,"byteOffset":871488},{"name":"Switch_Switch_osgPicked_gmeGeoEntityGeode_Geometry_Geometry_Geometry_Geometry_Geometry_0-Mesh_0_normals","componentType":5126,"count":12,"min":[0,0,1],"max":[0,0,1],"type":"VEC3","bufferView":1,"byteOffset":871488},{"name":"Switch_Switch_osgPicked_gmeGeoEntityGeode_Geometry_Geometry_Geometry_Geometry_Geometry_0-Mesh_0_indices","componentType":5125,"count":12,"min":[0],"max":[11],"type":"SCALAR","bufferView":2,"byteOffset":290496},{"name":"Switch_Switch_osgPicked_gmeGeoEntityGeode_Geometry_Geometry_Geometry_Geometry_Geometry_Geometry_0-Mesh_0_positions","componentType":5126,"count":6,"min":[485005.40625,3026123.75,311.29998779296875],"max":[485007.3125,3026265.5,311.29998779296875],"type":"VEC3","bufferView":0,"byteOffset":871632},{"name":"Switch_Switch_osgPicked_gmeGeoEntityGeode_Geometry_Geometry_Geometry_Geometry_Geometry_Geometry_0-Mesh_0_normals","componentType":5126,"count":6,"min":[0,0,1],"max":[0,0,1],"type":"VEC3","bufferView":1,"byteOffset":871632},{"name":"Switch_Switch_osgPicked_gmeGeoEntityGeode_Geometry_Geometry_Geometry_Geometry_Geometry_Geometry_0-Mesh_0_indices","componentType":5125,"count":6,"min":[0],"max":[5],"type":"SCALAR","bufferView":2,"byteOffset":290544},{"name":"Switch_Switch_osgPicked_gmeGeoEntityGeode_Geometry_Geometry_Geometry_Geometry_Geometry_Geometry_Geometry_0-Mesh_0_positions","componentType":5126,"count":6,"min":[485005.40625,3026218.25,311.7312316894531],"max":[485057,3026265.5,311.73748779296875],"type":"VEC3","bufferView":0,"byteOffset":871704},{"name":"Switch_Switch_osgPicked_gmeGeoEntityGeode_Geometry_Geometry_Geometry_Geometry_Geometry_Geometry_Geometry_0-Mesh_0_normals","componentType":5126,"count":6,"min":[0,0,1],"max":[0,0,1],"type":"VEC3","bufferView":1,"byteOffset":871704},{"name":"Switch_Switch_osgPicked_gmeGeoEntityGeode_Geometry_Geometry_Geometry_Geometry_Geometry_Geometry_Geometry_0-Mesh_0_indices","componentType":5125,"count":6,"min":[0],"max":[5],"type":"SCALAR","bufferView":2,"byteOffset":290568},{"name":"Switch_Switch_osgPicked_gmeGeoEntityGeode_Geometry_Geometry_Geometry_Geometry_Geometry_Geometry_Geometry_Geometry_0-Mesh_0_positions","componentType":5126,"count":6,"min":[485052.1875,3027187.25,434.9750061035156],"max":[485060.40625,3027196.5,435.8500061035156],"type":"VEC3","bufferView":0,"byteOffset":871776},{"name":"Switch_Switch_osgPicked_gmeGeoEntityGeode_Geometry_Geometry_Geometry_Geometry_Geometry_Geometry_Geometry_Geometry_0-Mesh_0_normals","componentType":5126,"count":6,"min":[0,0,1],"max":[0,0,1],"type":"VEC3","bufferView":1,"byteOffset":871776},{"name":"Switch_Switch_osgPicked_gmeGeoEntityGeode_Geometry_Geometry_Geometry_Geometry_Geometry_Geometry_Geometry_Geometry_0-Mesh_0_indices","componentType":5125,"count":6,"min":[0],"max":[5],"type":"SCALAR","bufferView":2,"byteOffset":290592},{"name":"Switch_Switch_osgPicked_gmeGeoEntityGeode_Geometry_Geometry_Geometry_Geometry_Geometry_Geometry_Geometry_Geometry_Geometry_0-Mesh_0_positions","componentType":5126,"count":6,"min":[485357.5,3027760.75,446.375],"max":[485505.59375,3027961.25,446.75],"type":"VEC3","bufferView":0,"byteOffset":871848},{"name":"Switch_Switch_osgPicked_gmeGeoEntityGeode_Geometry_Geometry_Geometry_Geometry_Geometry_Geometry_Geometry_Geometry_Geometry_0-Mesh_0_normals","componentType":5126,"count":6,"min":[0,0,1],"max":[0,0,1],"type":"VEC3","bufferView":1,"byteOffset":871848},{"name":"Switch_Switch_osgPicked_gmeGeoEntityGeode_Geometry_Geometry_Geometry_Geometry_Geometry_Geometry_Geometry_Geometry_Geometry_0-Mesh_0_indices","componentType":5125,"count":6,"min":[0],"max":[5],"type":"SCALAR","bufferView":2,"byteOffset":290616},{"name":"Switch_Switch_osgPicked_gmeGeoEntityGeode_Geometry_Geometry_Geometry_Geometry_Geometry_Geometry_Geometry_Geometry_Geometry_Geometry_0-Mesh_0_positions","componentType":5126,"count":6,"min":[485351.40625,3027760.75,447.072265625],"max":[485505.59375,3027964.5,447.4554748535156],"type":"VEC3","bufferView":0,"byteOffset":871920},{"name":"Switch_Switch_osgPicked_gmeGeoEntityGeode_Geometry_Geometry_Geometry_Geometry_Geometry_Geometry_Geometry_Geometry_Geometry_Geometry_0-Mesh_0_normals","componentType":5126,"count":6,"min":[0,0,1],"max":[0,0,1],"type":"VEC3","bufferView":1,"byteOffset":871920},{"name":"Switch_Switch_osgPicked_gmeGeoEntityGeode_Geometry_Geometry_Geometry_Geometry_Geometry_Geometry_Geometry_Geometry_Geometry_Geometry_0-Mesh_0_indices","componentType":5125,"count":6,"min":[0],"max":[5],"type":"SCALAR","bufferView":2,"byteOffset":290640},{"name":"Switch_Switch_osgPicked_gmeGeoEntityGeode_Geometry_Geometry_Geometry_Geometry_Geometry_Geometry_Geometry_Geometry_Geometry_Geometry_Geometry_0-Mesh_0_positions","componentType":5126,"count":6,"min":[487506.5,3035735,-3000],"max":[488006.6875,3035735,-3000],"type":"VEC3","bufferView":0,"byteOffset":871992},{"name":"Switch_Switch_osgPicked_gmeGeoEntityGeode_Geometry_Geometry_Geometry_Geometry_Geometry_Geometry_Geometry_Geometry_Geometry_Geometry_Geometry_0-Mesh_0_normals","componentType":5126,"count":6,"min":[0,0,1],"max":[0,0,1],"type":"VEC3","bufferView":1,"byteOffset":871992},{"name":"Switch_Switch_osgPicked_gmeGeoEntityGeode_Geometry_Geometry_Geometry_Geometry_Geometry_Geometry_Geometry_Geometry_Geometry_Geometry_Geometry_0-Mesh_0_indices","componentType":5125,"count":6,"min":[0],"max":[5],"type":"SCALAR","bufferView":2,"byteOffset":290664},{"name":"Switch_Switch_osgPicked_gmeGeoEntityGeode_Geometry_Geometry_Geometry_Geometry_Geometry_Geometry_Geometry_Geometry_Geometry_Geometry_Geometry_Geometry_0-Mesh_0_positions","componentType":5126,"count":3,"min":[489275.3125,3036943,556.7000122070312],"max":[489298.40625,3036963.5,563.4000244140625],"type":"VEC3","bufferView":0,"byteOffset":872064},{"name":"Switch_Switch_osgPicked_gmeGeoEntityGeode_Geometry_Geometry_Geometry_Geometry_Geometry_Geometry_Geometry_Geometry_Geometry_Geometry_Geometry_Geometry_0-Mesh_0_normals","componentType":5126,"count":3,"min":[-0.12356304377317429,0.24712608754634857,-0.9610727429389954],"max":[-0.12356304377317429,0.24712608754634857,-0.9610727429389954],"type":"VEC3","bufferView":1,"byteOffset":872064},{"name":"Switch_Switch_osgPicked_gmeGeoEntityGeode_Geometry_Geometry_Geometry_Geometry_Geometry_Geometry_Geometry_Geometry_Geometry_Geometry_Geometry_Geometry_0-Mesh_0_indices","componentType":5125,"count":3,"min":[0],"max":[2],"type":"SCALAR","bufferView":2,"byteOffset":290688},{"name":"Switch_Switch_osgPicked_gmeGeoEntityGeode_Geometry_Geometry_Geometry_Geometry_Geometry_Geometry_Geometry_Geometry_Geometry_Geometry_Geometry_Geometry_Geometry_0-Mesh_0_positions","componentType":5126,"count":6,"min":[489893.90625,3035294.25,583.4124755859375],"max":[489908.8125,3035335.25,583.7437133789062],"type":"VEC3","bufferView":0,"byteOffset":872100},{"name":"Switch_Switch_osgPicked_gmeGeoEntityGeode_Geometry_Geometry_Geometry_Geometry_Geometry_Geometry_Geometry_Geometry_Geometry_Geometry_Geometry_Geometry_Geometry_0-Mesh_0_normals","componentType":5126,"count":6,"min":[0,0,1],"max":[0,0,1],"type":"VEC3","bufferView":1,"byteOffset":872100},{"name":"Switch_Switch_osgPicked_gmeGeoEntityGeode_Geometry_Geometry_Geometry_Geometry_Geometry_Geometry_Geometry_Geometry_Geometry_Geometry_Geometry_Geometry_Geometry_0-Mesh_0_indices","componentType":5125,"count":6,"min":[0],"max":[5],"type":"SCALAR","bufferView":2,"byteOffset":290700},{"name":"Switch_Switch_osgPicked_gmeGeoEntityGeode_Geometry_Geometry_Geometry_Geometry_Geometry_Geometry_Geometry_Geometry_Geometry_Geometry_Geometry_Geometry_Geometry_Geometry_0-Mesh_0_positions","componentType":5126,"count":42,"min":[489859.40625,3035356.5,599.2000122070312],"max":[490007.59375,3035697.5,655.6500244140625],"type":"VEC3","bufferView":0,"byteOffset":872172},{"name":"Switch_Switch_osgPicked_gmeGeoEntityGeode_Geometry_Geometry_Geometry_Geometry_Geometry_Geometry_Geometry_Geometry_Geometry_Geometry_Geometry_Geometry_Geometry_Geometry_0-Mesh_0_normals","componentType":5126,"count":42,"min":[-0.283563494682312,0,0.9589534401893616],"max":[0,0,1],"type":"VEC3","bufferView":1,"byteOffset":872172},{"name":"Switch_Switch_osgPicked_gmeGeoEntityGeode_Geometry_Geometry_Geometry_Geometry_Geometry_Geometry_Geometry_Geometry_Geometry_Geometry_Geometry_Geometry_Geometry_Geometry_0-Mesh_0_indices","componentType":5125,"count":42,"min":[0],"max":[41],"type":"SCALAR","bufferView":2,"byteOffset":290724},{"name":"Switch_Switch_osgPicked_gmeGeoEntityGeode_Geometry_Geometry_Geometry_Geometry_Geometry_Geometry_Geometry_Geometry_Geometry_Geometry_Geometry_Geometry_Geometry_Geometry_Geometry_0-Mesh_0_positions","componentType":5126,"count":3,"min":[491508.3125,3035451.5,-3000],"max":[491964.40625,3035735,-3000],"type":"VEC3","bufferView":0,"byteOffset":872676},{"name":"Switch_Switch_osgPicked_gmeGeoEntityGeode_Geometry_Geometry_Geometry_Geometry_Geometry_Geometry_Geometry_Geometry_Geometry_Geometry_Geometry_Geometry_Geometry_Geometry_Geometry_0-Mesh_0_normals","componentType":5126,"count":3,"min":[0,0,1],"max":[0,0,1],"type":"VEC3","bufferView":1,"byteOffset":872676},{"name":"Switch_Switch_osgPicked_gmeGeoEntityGeode_Geometry_Geometry_Geometry_Geometry_Geometry_Geometry_Geometry_Geometry_Geometry_Geometry_Geometry_Geometry_Geometry_Geometry_Geometry_0-Mesh_0_indices","componentType":5125,"count":3,"min":[0],"max":[2],"type":"SCALAR","bufferView":2,"byteOffset":290892},{"name":"Switch_Switch_osgPicked_gmeGeoEntityGeode_Geometry_Geometry_Geometry_Geometry_Geometry_Geometry_Geometry_Geometry_Geometry_Geometry_Geometry_Geometry_Geometry_Geometry_Geometry_Geometry_0-Mesh_0_positions","componentType":5126,"count":12,"min":[496892.1875,3045820.75,-22.600000381469727],"max":[496892.6875,3045821.5,-22.46666717529297],"type":"VEC3","bufferView":0,"byteOffset":872712},{"name":"Switch_Switch_osgPicked_gmeGeoEntityGeode_Geometry_Geometry_Geometry_Geometry_Geometry_Geometry_Geometry_Geometry_Geometry_Geometry_Geometry_Geometry_Geometry_Geometry_Geometry_Geometry_0-Mesh_0_normals","componentType":5126,"count":12,"min":[0,0,1],"max":[0,0,1],"type":"VEC3","bufferView":1,"byteOffset":872712},{"name":"Switch_Switch_osgPicked_gmeGeoEntityGeode_Geometry_Geometry_Geometry_Geometry_Geometry_Geometry_Geometry_Geometry_Geometry_Geometry_Geometry_Geometry_Geometry_Geometry_Geometry_Geometry_0-Mesh_0_indices","componentType":5125,"count":12,"min":[0],"max":[11],"type":"SCALAR","bufferView":2,"byteOffset":290904},{"name":"Switch_Switch_osgPicked_gmeGeoEntityGeode_Geometry_Geometry_Geometry_Geometry_Geometry_Geometry_Geometry_Geometry_Geometry_Geometry_Geometry_Geometry_Geometry_Geometry_Geometry_Geometry_Geometry_0-Mesh_0_positions","componentType":5126,"count":6,"min":[499289.3125,3050191,377.94921875],"max":[499460.6875,3050410,378.22540283203125],"type":"VEC3","bufferView":0,"byteOffset":872856},{"name":"Switch_Switch_osgPicked_gmeGeoEntityGeode_Geometry_Geometry_Geometry_Geometry_Geometry_Geometry_Geometry_Geometry_Geometry_Geometry_Geometry_Geometry_Geometry_Geometry_Geometry_Geometry_Geometry_0-Mesh_0_normals","componentType":5126,"count":6,"min":[0,0,1],"max":[0,0,1],"type":"VEC3","bufferView":1,"byteOffset":872856},{"name":"Switch_Switch_osgPicked_gmeGeoEntityGeode_Geometry_Geometry_Geometry_Geometry_Geometry_Geometry_Geometry_Geometry_Geometry_Geometry_Geometry_Geometry_Geometry_Geometry_Geometry_Geometry_Geometry_0-Mesh_0_indices","componentType":5125,"count":6,"min":[0],"max":[5],"type":"SCALAR","bufferView":2,"byteOffset":290952},{"name":"Switch_Switch_osgPicked_gmeGeoEntityGeode_Geometry_Geometry_Geometry_Geometry_Geometry_Geometry_Geometry_Geometry_Geometry_Geometry_Geometry_Geometry_Geometry_Geometry_Geometry_Geometry_Geometry_Geometry_0-Mesh_0_positions","componentType":5126,"count":3,"min":[499663.5,3049690.25,459.79998779296875],"max":[500012,3050037.5,553.7999877929688],"type":"VEC3","bufferView":0,"byteOffset":872928},{"name":"Switch_Switch_osgPicked_gmeGeoEntityGeode_Geometry_Geometry_Geometry_Geometry_Geometry_Geometry_Geometry_Geometry_Geometry_Geometry_Geometry_Geometry_Geometry_Geometry_Geometry_Geometry_Geometry_Geometry_0-Mesh_0_normals","componentType":5126,"count":3,"min":[0.1881072223186493,0,-0.9821485280990601],"max":[0.1881072223186493,0,-0.9821485280990601],"type":"VEC3","bufferView":1,"byteOffset":872928},{"name":"Switch_Switch_osgPicked_gmeGeoEntityGeode_Geometry_Geometry_Geometry_Geometry_Geometry_Geometry_Geometry_Geometry_Geometry_Geometry_Geometry_Geometry_Geometry_Geometry_Geometry_Geometry_Geometry_Geometry_0-Mesh_0_indices","componentType":5125,"count":3,"min":[0],"max":[2],"type":"SCALAR","bufferView":2,"byteOffset":290976}],"asset":{"generator":"obj2gltf","version":"2.0"},"buffers":[{"name":"Qns2","byteLength":2036916,"uri":"data:application/octet-stream;base64,"}],"bufferViews":[{"name":"bufferView_0","buffer":0,"byteLength":872964,"byteOffset":0,"byteStride":12,"target":34962},{"name":"bufferView_1","buffer":0,"byteLength":872964,"byteOffset":872964,"byteStride":12,"target":34962},{"name":"bufferView_2","buffer":0,"byteLength":290988,"byteOffset":1745928,"target":34963}],"materials":[{"name":"material_37","pbrMetallicRoughness":{"baseColorFactor":[1,0.627451,0.478431,1],"metallicFactor":0,"roughnessFactor":1},"emissiveFactor":[0,0,0],"alphaMode":"OPAQUE","doubleSided":false}],"meshes":[{"name":"Switch_Switch_osgPicked_gmeGeoEntityGeode_Geometry_0-Mesh","primitives":[{"attributes":{"POSITION":0,"NORMAL":1},"indices":2,"material":0,"mode":4}]},{"name":"Switch_Switch_osgPicked_gmeGeoEntityGeode_Geometry_Geometry_0-Mesh","primitives":[{"attributes":{"POSITION":3,"NORMAL":4},"indices":5,"material":0,"mode":4}]},{"name":"Switch_Switch_osgPicked_gmeGeoEntityGeode_Geometry_Geometry_Geometry_0-Mesh","primitives":[{"attributes":{"POSITION":6,"NORMAL":7},"indices":8,"material":0,"mode":4}]},{"name":"Switch_Switch_osgPicked_gmeGeoEntityGeode_Geometry_Geometry_Geometry_Geometry_0-Mesh","primitives":[{"attributes":{"POSITION":9,"NORMAL":10},"indices":11,"material":0,"mode":4}]},{"name":"Switch_Switch_osgPicked_gmeGeoEntityGeode_Geometry_Geometry_Geometry_Geometry_Geometry_0-Mesh","primitives":[{"attributes":{"POSITION":12,"NORMAL":13},"indices":14,"material":0,"mode":4}]},{"name":"Switch_Switch_osgPicked_gmeGeoEntityGeode_Geometry_Geometry_Geometry_Geometry_Geometry_Geometry_0-Mesh","primitives":[{"attributes":{"POSITION":15,"NORMAL":16},"indices":17,"material":0,"mode":4}]},{"name":"Switch_Switch_osgPicked_gmeGeoEntityGeode_Geometry_Geometry_Geometry_Geometry_Geometry_Geometry_Geometry_0-Mesh","primitives":[{"attributes":{"POSITION":18,"NORMAL":19},"indices":20,"material":0,"mode":4}]},{"name":"Switch_Switch_osgPicked_gmeGeoEntityGeode_Geometry_Geometry_Geometry_Geometry_Geometry_Geometry_Geometry_Geometry_0-Mesh","primitives":[{"attributes":{"POSITION":21,"NORMAL":22},"indices":23,"material":0,"mode":4}]},{"name":"Switch_Switch_osgPicked_gmeGeoEntityGeode_Geometry_Geometry_Geometry_Geometry_Geometry_Geometry_Geometry_Geometry_Geometry_0-Mesh","primitives":[{"attributes":{"POSITION":24,"NORMAL":25},"indices":26,"material":0,"mode":4}]},{"name":"Switch_Switch_osgPicked_gmeGeoEntityGeode_Geometry_Geometry_Geometry_Geometry_Geometry_Geometry_Geometry_Geometry_Geometry_Geometry_0-Mesh","primitives":[{"attributes":{"POSITION":27,"NORMAL":28},"indices":29,"material":0,"mode":4}]},{"name":"Switch_Switch_osgPicked_gmeGeoEntityGeode_Geometry_Geometry_Geometry_Geometry_Geometry_Geometry_Geometry_Geometry_Geometry_Geometry_Geometry_0-Mesh","primitives":[{"attributes":{"POSITION":30,"NORMAL":31},"indices":32,"material":0,"mode":4}]},{"name":"Switch_Switch_osgPicked_gmeGeoEntityGeode_Geometry_Geometry_Geometry_Geometry_Geometry_Geometry_Geometry_Geometry_Geometry_Geometry_Geometry_Geometry_0-Mesh","primitives":[{"attributes":{"POSITION":33,"NORMAL":34},"indices":35,"material":0,"mode":4}]},{"name":"Switch_Switch_osgPicked_gmeGeoEntityGeode_Geometry_Geometry_Geometry_Geometry_Geometry_Geometry_Geometry_Geometry_Geometry_Geometry_Geometry_Geometry_Geometry_0-Mesh","primitives":[{"attributes":{"POSITION":36,"NORMAL":37},"indices":38,"material":0,"mode":4}]},{"name":"Switch_Switch_osgPicked_gmeGeoEntityGeode_Geometry_Geometry_Geometry_Geometry_Geometry_Geometry_Geometry_Geometry_Geometry_Geometry_Geometry_Geometry_Geometry_Geometry_0-Mesh","primitives":[{"attributes":{"POSITION":39,"NORMAL":40},"indices":41,"material":0,"mode":4}]},{"name":"Switch_Switch_osgPicked_gmeGeoEntityGeode_Geometry_Geometry_Geometry_Geometry_Geometry_Geometry_Geometry_Geometry_Geometry_Geometry_Geometry_Geometry_Geometry_Geometry_Geometry_0-Mesh","primitives":[{"attributes":{"POSITION":42,"NORMAL":43},"indices":44,"material":0,"mode":4}]},{"name":"Switch_Switch_osgPicked_gmeGeoEntityGeode_Geometry_Geometry_Geometry_Geometry_Geometry_Geometry_Geometry_Geometry_Geometry_Geometry_Geometry_Geometry_Geometry_Geometry_Geometry_Geometry_0-Mesh","primitives":[{"attributes":{"POSITION":45,"NORMAL":46},"indices":47,"material":0,"mode":4}]},{"name":"Switch_Switch_osgPicked_gmeGeoEntityGeode_Geometry_Geometry_Geometry_Geometry_Geometry_Geometry_Geometry_Geometry_Geometry_Geometry_Geometry_Geometry_Geometry_Geometry_Geometry_Geometry_Geometry_0-Mesh","primitives":[{"attributes":{"POSITION":48,"NORMAL":49},"indices":50,"material":0,"mode":4}]},{"name":"Switch_Switch_osgPicked_gmeGeoEntityGeode_Geometry_Geometry_Geometry_Geometry_Geometry_Geometry_Geometry_Geometry_Geometry_Geometry_Geometry_Geometry_Geometry_Geometry_Geometry_Geometry_Geometry_Geometry_0-Mesh","primitives":[{"attributes":{"POSITION":51,"NORMAL":52},"indices":53,"material":0,"mode":4}]}],"nodes":[{"name":"Switch_Switch_osgPicked_gmeGeoEntityGeode_Geometry_0","mesh":0},{"name":"Switch_Switch_osgPicked_gmeGeoEntityGeode_Geometry_Geometry_0","mesh":1},{"name":"Switch_Switch_osgPicked_gmeGeoEntityGeode_Geometry_Geometry_Geometry_0","mesh":2},{"name":"Switch_Switch_osgPicked_gmeGeoEntityGeode_Geometry_Geometry_Geometry_Geometry_0","mesh":3},{"name":"Switch_Switch_osgPicked_gmeGeoEntityGeode_Geometry_Geometry_Geometry_Geometry_Geometry_0","mesh":4},{"name":"Switch_Switch_osgPicked_gmeGeoEntityGeode_Geometry_Geometry_Geometry_Geometry_Geometry_Geometry_0","mesh":5},{"name":"Switch_Switch_osgPicked_gmeGeoEntityGeode_Geometry_Geometry_Geometry_Geometry_Geometry_Geometry_Geometry_0","mesh":6},{"name":"Switch_Switch_osgPicked_gmeGeoEntityGeode_Geometry_Geometry_Geometry_Geometry_Geometry_Geometry_Geometry_Geometry_0","mesh":7},{"name":"Switch_Switch_osgPicked_gmeGeoEntityGeode_Geometry_Geometry_Geometry_Geometry_Geometry_Geometry_Geometry_Geometry_Geometry_0","mesh":8},{"name":"Switch_Switch_osgPicked_gmeGeoEntityGeode_Geometry_Geometry_Geometry_Geometry_Geometry_Geometry_Geometry_Geometry_Geometry_Geometry_0","mesh":9},{"name":"Switch_Switch_osgPicked_gmeGeoEntityGeode_Geometry_Geometry_Geometry_Geometry_Geometry_Geometry_Geometry_Geometry_Geometry_Geometry_Geometry_0","mesh":10},{"name":"Switch_Switch_osgPicked_gmeGeoEntityGeode_Geometry_Geometry_Geometry_Geometry_Geometry_Geometry_Geometry_Geometry_Geometry_Geometry_Geometry_Geometry_0","mesh":11},{"name":"Switch_Switch_osgPicked_gmeGeoEntityGeode_Geometry_Geometry_Geometry_Geometry_Geometry_Geometry_Geometry_Geometry_Geometry_Geometry_Geometry_Geometry_Geometry_0","mesh":12},{"name":"Switch_Switch_osgPicked_gmeGeoEntityGeode_Geometry_Geometry_Geometry_Geometry_Geometry_Geometry_Geometry_Geometry_Geometry_Geometry_Geometry_Geometry_Geometry_Geometry_0","mesh":13},{"name":"Switch_Switch_osgPicked_gmeGeoEntityGeode_Geometry_Geometry_Geometry_Geometry_Geometry_Geometry_Geometry_Geometry_Geometry_Geometry_Geometry_Geometry_Geometry_Geometry_Geometry_0","mesh":14},{"name":"Switch_Switch_osgPicked_gmeGeoEntityGeode_Geometry_Geometry_Geometry_Geometry_Geometry_Geometry_Geometry_Geometry_Geometry_Geometry_Geometry_Geometry_Geometry_Geometry_Geometry_Geometry_0","mesh":15},{"name":"Switch_Switch_osgPicked_gmeGeoEntityGeode_Geometry_Geometry_Geometry_Geometry_Geometry_Geometry_Geometry_Geometry_Geometry_Geometry_Geometry_Geometry_Geometry_Geometry_Geometry_Geometry_Geometry_0","mesh":16},{"name":"Switch_Switch_osgPicked_gmeGeoEntityGeode_Geometry_Geometry_Geometry_Geometry_Geometry_Geometry_Geometry_Geometry_Geometry_Geometry_Geometry_Geometry_Geometry_Geometry_Geometry_Geometry_Geometry_Geometry_0","mesh":17}],"scene":0,"scenes":[{"nodes":[0,1,2,3,4,5,6,7,8,9,10,11,12,13,14,15,16,17]}]}